<mxfile host="app.diagrams.net" modified="2024-04-14T10:13:34.342Z" agent="Mozilla/5.0 (Macintosh; Intel Mac OS X 10_15_7) AppleWebKit/537.36 (KHTML, like Gecko) Chrome/123.0.0.0 Safari/537.36" etag="zZ9_CjPd3wy1-Ap7gGyE" version="24.2.2" type="device">
  <diagram name="PÃ gina-1" id="ved3tAUG1FeaRVCPwg-5">
    <mxGraphModel dx="1166" dy="686" grid="1" gridSize="10" guides="1" tooltips="1" connect="1" arrows="1" fold="1" page="1" pageScale="1" pageWidth="827" pageHeight="1169" math="0" shadow="0">
      <root>
        <mxCell id="0" />
        <mxCell id="1" parent="0" />
        <mxCell id="qvAsYW4s89Jc12h62jNv-14" value="" style="edgeStyle=orthogonalEdgeStyle;rounded=0;orthogonalLoop=1;jettySize=auto;html=1;entryX=0;entryY=0.25;entryDx=0;entryDy=0;endArrow=none;endFill=0;" edge="1" parent="1" source="qvAsYW4s89Jc12h62jNv-1" target="qvAsYW4s89Jc12h62jNv-6">
          <mxGeometry relative="1" as="geometry">
            <Array as="points">
              <mxPoint x="200" y="220" />
              <mxPoint x="200" y="198" />
            </Array>
          </mxGeometry>
        </mxCell>
        <mxCell id="qvAsYW4s89Jc12h62jNv-15" value="0..*" style="edgeLabel;html=1;align=center;verticalAlign=middle;resizable=0;points=[];" vertex="1" connectable="0" parent="qvAsYW4s89Jc12h62jNv-14">
          <mxGeometry x="0.7268" y="5" relative="1" as="geometry">
            <mxPoint x="1" y="-3" as="offset" />
          </mxGeometry>
        </mxCell>
        <mxCell id="qvAsYW4s89Jc12h62jNv-16" value="1..1" style="edgeLabel;html=1;align=center;verticalAlign=middle;resizable=0;points=[];" vertex="1" connectable="0" parent="qvAsYW4s89Jc12h62jNv-14">
          <mxGeometry x="-0.5902" y="3" relative="1" as="geometry">
            <mxPoint x="-10" y="-5" as="offset" />
          </mxGeometry>
        </mxCell>
        <mxCell id="qvAsYW4s89Jc12h62jNv-1" value="User" style="swimlane;whiteSpace=wrap;html=1;" vertex="1" parent="1">
          <mxGeometry x="40" y="160" width="120" height="120" as="geometry">
            <mxRectangle x="310" y="270" width="70" height="30" as="alternateBounds" />
          </mxGeometry>
        </mxCell>
        <mxCell id="qvAsYW4s89Jc12h62jNv-2" value="id&lt;div&gt;username&lt;/div&gt;&lt;div style=&quot;&quot;&gt;password&lt;/div&gt;&lt;div style=&quot;&quot;&gt;email&lt;/div&gt;&lt;div style=&quot;&quot;&gt;registration_date&lt;/div&gt;&lt;div style=&quot;&quot;&gt;last_access_date&lt;/div&gt;" style="text;html=1;align=left;verticalAlign=middle;resizable=0;points=[];autosize=1;strokeColor=none;fillColor=none;" vertex="1" parent="qvAsYW4s89Jc12h62jNv-1">
          <mxGeometry x="10" y="20" width="120" height="100" as="geometry" />
        </mxCell>
        <mxCell id="qvAsYW4s89Jc12h62jNv-17" style="edgeStyle=orthogonalEdgeStyle;rounded=0;orthogonalLoop=1;jettySize=auto;html=1;exitX=1;exitY=0.25;exitDx=0;exitDy=0;entryX=0;entryY=0.75;entryDx=0;entryDy=0;endArrow=none;endFill=0;" edge="1" parent="1" source="qvAsYW4s89Jc12h62jNv-6" target="qvAsYW4s89Jc12h62jNv-12">
          <mxGeometry relative="1" as="geometry" />
        </mxCell>
        <mxCell id="qvAsYW4s89Jc12h62jNv-18" value="1..*" style="edgeLabel;html=1;align=center;verticalAlign=middle;resizable=0;points=[];" vertex="1" connectable="0" parent="qvAsYW4s89Jc12h62jNv-17">
          <mxGeometry x="0.6364" y="1" relative="1" as="geometry">
            <mxPoint x="8" y="-7" as="offset" />
          </mxGeometry>
        </mxCell>
        <mxCell id="qvAsYW4s89Jc12h62jNv-19" value="1..1" style="edgeLabel;html=1;align=center;verticalAlign=middle;resizable=0;points=[];" vertex="1" connectable="0" parent="qvAsYW4s89Jc12h62jNv-17">
          <mxGeometry x="-0.8182" y="2" relative="1" as="geometry">
            <mxPoint x="1" y="-6" as="offset" />
          </mxGeometry>
        </mxCell>
        <mxCell id="qvAsYW4s89Jc12h62jNv-6" value="Test" style="swimlane;whiteSpace=wrap;html=1;" vertex="1" parent="1">
          <mxGeometry x="240" y="160" width="120" height="150" as="geometry">
            <mxRectangle x="310" y="270" width="70" height="30" as="alternateBounds" />
          </mxGeometry>
        </mxCell>
        <mxCell id="qvAsYW4s89Jc12h62jNv-7" value="id&lt;div&gt;&lt;span style=&quot;background-color: initial;&quot;&gt;user_id&lt;/span&gt;&lt;/div&gt;&lt;div&gt;&lt;span style=&quot;background-color: initial;&quot;&gt;title&lt;/span&gt;&lt;/div&gt;&lt;div&gt;&lt;span style=&quot;background-color: initial;&quot;&gt;description&lt;/span&gt;&lt;/div&gt;&lt;div&gt;&lt;span style=&quot;background-color: initial;&quot;&gt;success_score&lt;/span&gt;&lt;/div&gt;&lt;div&gt;&lt;span style=&quot;background-color: initial;&quot;&gt;error_score&lt;/span&gt;&lt;/div&gt;&lt;div&gt;&lt;span style=&quot;background-color: initial;&quot;&gt;last_time_done&lt;/span&gt;&lt;/div&gt;&lt;div&gt;&lt;span style=&quot;background-color: initial;&quot;&gt;favorite&lt;/span&gt;&lt;/div&gt;" style="text;html=1;align=left;verticalAlign=middle;resizable=0;points=[];autosize=1;strokeColor=none;fillColor=none;" vertex="1" parent="qvAsYW4s89Jc12h62jNv-6">
          <mxGeometry x="10" y="20" width="100" height="130" as="geometry" />
        </mxCell>
        <mxCell id="qvAsYW4s89Jc12h62jNv-8" value="Answer" style="swimlane;whiteSpace=wrap;html=1;" vertex="1" parent="1">
          <mxGeometry x="640" y="160" width="120" height="91" as="geometry">
            <mxRectangle x="310" y="270" width="70" height="30" as="alternateBounds" />
          </mxGeometry>
        </mxCell>
        <mxCell id="qvAsYW4s89Jc12h62jNv-9" value="id&lt;div&gt;&lt;span style=&quot;background-color: initial;&quot;&gt;question_id&lt;/span&gt;&lt;/div&gt;&lt;div&gt;&lt;span style=&quot;background-color: initial;&quot;&gt;text&lt;/span&gt;&lt;/div&gt;&lt;div&gt;correct&lt;/div&gt;" style="text;html=1;align=left;verticalAlign=middle;resizable=0;points=[];autosize=1;strokeColor=none;fillColor=none;" vertex="1" parent="qvAsYW4s89Jc12h62jNv-8">
          <mxGeometry x="10" y="21" width="80" height="70" as="geometry" />
        </mxCell>
        <mxCell id="qvAsYW4s89Jc12h62jNv-20" style="edgeStyle=orthogonalEdgeStyle;rounded=0;orthogonalLoop=1;jettySize=auto;html=1;exitX=1;exitY=0.75;exitDx=0;exitDy=0;entryX=0;entryY=0.5;entryDx=0;entryDy=0;endArrow=none;endFill=0;" edge="1" parent="1" source="qvAsYW4s89Jc12h62jNv-12" target="qvAsYW4s89Jc12h62jNv-8">
          <mxGeometry relative="1" as="geometry" />
        </mxCell>
        <mxCell id="qvAsYW4s89Jc12h62jNv-21" value="1..*" style="edgeLabel;html=1;align=center;verticalAlign=middle;resizable=0;points=[];" vertex="1" connectable="0" parent="qvAsYW4s89Jc12h62jNv-20">
          <mxGeometry x="0.6732" y="1" relative="1" as="geometry">
            <mxPoint x="5" y="-7" as="offset" />
          </mxGeometry>
        </mxCell>
        <mxCell id="qvAsYW4s89Jc12h62jNv-22" value="1..1" style="edgeLabel;html=1;align=center;verticalAlign=middle;resizable=0;points=[];" vertex="1" connectable="0" parent="qvAsYW4s89Jc12h62jNv-20">
          <mxGeometry x="-0.8148" y="3" relative="1" as="geometry">
            <mxPoint x="1" y="-5" as="offset" />
          </mxGeometry>
        </mxCell>
        <mxCell id="qvAsYW4s89Jc12h62jNv-12" value="Question" style="swimlane;whiteSpace=wrap;html=1;" vertex="1" parent="1">
          <mxGeometry x="440" y="160" width="120" height="90" as="geometry">
            <mxRectangle x="310" y="270" width="70" height="30" as="alternateBounds" />
          </mxGeometry>
        </mxCell>
        <mxCell id="qvAsYW4s89Jc12h62jNv-13" value="id&lt;div&gt;&lt;span style=&quot;background-color: initial;&quot;&gt;test_id&lt;/span&gt;&lt;/div&gt;&lt;div&gt;&lt;span style=&quot;background-color: initial;&quot;&gt;statement&lt;/span&gt;&lt;/div&gt;&lt;div&gt;feedback&lt;/div&gt;" style="text;html=1;align=left;verticalAlign=middle;resizable=0;points=[];autosize=1;strokeColor=none;fillColor=none;" vertex="1" parent="qvAsYW4s89Jc12h62jNv-12">
          <mxGeometry x="10" y="21" width="80" height="70" as="geometry" />
        </mxCell>
      </root>
    </mxGraphModel>
  </diagram>
</mxfile>
